<svg width="764" height="203" viewBox="0 0 764 203" fill="none" xmlns="http://www.w3.org/2000/svg">
<path d="M97.8964 77.4082C94.8388 76.0539 88.1749 71.1034 84.2427 68.1074C78.9801 64.0978 81.6546 87.653 81.1416 90.3847C80.9163 91.5844 80.9672 92.4393 79.9514 89.9974C76.5924 81.9223 72.9489 72.6527 70.4659 68.2023C70.2752 67.8605 75.4524 75.7974 82.2035 87.3323C87.3255 96.0838 118.66 112.498 118.578 112.511C117.718 112.645 88.3339 96.4407 85.1918 90.4771C82.0496 84.5134 76.463 75.2023 72.6539 69.2207C64.2823 56.0742 59.9545 47.6949 56.6994 43.3062C50.8486 35.4174 39.2598 33.6488 38.0465 30.9863C37.7964 30.4375 40.9271 38.5275 46.6368 51.5733C52.8552 65.7811 57.7075 73.6377 58.4744 75.3434C60.0341 78.8123 62.1501 82.0048 64.0277 87.0399C66.6605 94.1003 68.1369 100.14 68.9911 102.358C69.3827 103.376 69.5066 104.238 66.4619 94.4323C63.4172 84.6262 57.1534 64.1419 53.7573 53.2508C49.7171 40.2941 48.9967 37.5785 47.7116 33.9874C47.1733 32.4833 46.9395 31.0736 47.1062 29.9629C47.6744 26.1781 59.3696 29.8629 64.5356 30.7221C70.1706 31.6594 74.2776 32.2637 77.4505 32.8588C78.2501 33.0088 79.069 33.4539 79.9283 34.0516C81.7631 35.3277 83.1834 40.9387 84.2094 49.1339C84.9763 55.2597 85.0661 62.3156 85.8356 70.5083C86.8645 81.4623 86.6102 89.6588 86.1844 96.2792C85.5412 106.28 73.1643 109.397 72.6539 113.785C72.1244 118.339 84.7326 124.42 84.4736 127.16C83.8955 133.272 84.3838 143.227 85.0686 146.141C85.3905 147.51 85.9228 148.88 86.9437 149.906C87.4842 150.449 88.6417 150.255 89.4189 149.747C93.04 147.381 102.052 128.509 103.268 119.595C104.142 113.183 96.6959 111.287 96.955 106.326C97.1707 102.195 99.4149 94.0604 100.631 88.7046C100.953 87.2847 101.657 85.4573 103.268 78.6677C106.992 62.9678 110.547 51.9375 111.653 48.5388C115.439 36.8986 115.333 34.326 116.357 32.5331C119.663 26.7414 133.448 28.1597 138.147 27.7339C144.902 27.1218 150.377 26.1077 154.312 25.2561C155.334 25.0349 156.358 25.0817 156.712 25.4202C157.447 26.1224 152.993 33.2282 147.271 43.3087C142.293 52.0775 136.587 60.4175 133.13 65.5142C131.313 68.1919 127.835 69.867 124.244 73.6299C119.746 78.3435 116.56 87.4426 114.402 91.598C114.037 92.3014 113.969 84.6467 114.649 73.3888C115.332 62.0701 117.385 55.8671 118.578 54.3358C122.321 49.5302 127.117 47.4897 130.631 46.7151C133.567 46.0679 136.023 47.8232 137.134 48.5876C144.371 53.5688 137.234 71.0675 136.969 76.3617C136.789 79.9839 137.736 83.7182 140.72 89.528C142.592 93.1749 145.257 96.5433 147.222 99.3726C149.242 102.282 152.778 103.561 155.343 105.616C157.866 107.637 160.811 108.691 167.809 111.854C171.303 113.434 175.165 115.186 179.531 118.605C182.78 121.15 185.954 122.378 186.982 123.145C187.356 123.423 186.657 124.081 185.041 124.089C174.109 124.141 165.798 117.946 162.463 115.04C158.122 111.256 152.798 107.86 149.982 105.377C144.195 100.275 139.973 97.6001 138.429 93.5833C138.067 92.6411 137.747 91.9571 137.488 92.0315C133.811 93.0872 139.44 102.012 140.727 106.462C141.969 110.754 145.77 113.134 149.012 115.958C152.348 118.864 156.697 121.003 160.47 122.037C163.678 122.916 166.793 123.404 170.812 124.684C175.673 126.232 180.295 128.021 184.915 128.791C192.409 130.039 195.183 130.073 199.366 130.671C206.121 131.636 210.224 134.003 218.165 135.629C222.961 136.611 228.508 135.378 233.656 134.442C237.081 133.819 240.153 133.5 247.494 133.241C252.167 133.076 256.22 131.961 263.312 130.935C268.844 130.135 275.006 125.508 280.342 121.365C285.112 117.662 291.269 108.404 296.158 102.648C300.225 97.8592 303.088 90.9413 304.037 86.1498C305.303 79.7591 302.083 75.2126 299.518 71.011C296.119 65.4441 292.336 60.3251 290.281 57.4959C287.828 54.1175 283.451 50.2292 281.047 48.09C278.462 45.7887 276.094 43.3857 271.397 41.1644C267.149 39.1549 260.735 39.2816 253.706 39.1867C244.877 39.0675 238.501 39.7947 231.901 37.9991C225.115 36.1529 217.488 35.1879 209.76 33.8053C204.399 32.8463 197.963 35.4905 191.399 39.9255C179.031 48.2821 174.857 50.7217 172.377 52.7763C170.091 54.6695 168.866 57.2163 167.244 60.7201C165.175 65.1941 164.762 69.8568 163.651 75.251C162.387 81.387 163.387 88.3352 164.238 91.2389C164.608 92.5006 165.428 93.1267 163.915 86.3653C162.402 79.6039 158.677 65.3834 156.759 56.6187C154.84 47.854 154.84 44.976 155.094 43.2395C155.437 40.8943 157.733 40.1332 160.811 38.0017C164.89 35.1771 168.845 34.839 172.611 33.4642C176.333 32.105 181.67 31.5866 185.436 30.6426C188.98 29.7541 197.019 28.6727 205.161 29.0985C222.866 30.0245 229.031 30.7247 235.867 31.5763C242.176 32.3623 245.621 33.2795 253.052 35.5906C257.367 36.9325 260.001 37.9017 260.686 39.0098C262.268 41.5699 260.006 48.2952 260.683 60.8869C261.134 69.2616 262.715 81.6046 263.582 88.4789C264.863 98.6387 265.475 102.361 265.734 105.1C265.799 105.79 265.988 106.465 266.075 106.475C266.743 106.554 265.993 104.264 265.567 102.643C265.169 101.125 260.899 89.8281 254.917 72.9913C251.208 62.5523 247.037 54.2101 244.2 47.0024C238.515 32.5585 238.291 29.0215 238.457 28.5034C238.968 26.9167 244.067 37.835 250.554 50.301C253.373 55.7173 255.687 59.0426 260.037 63.9188C277.314 83.2839 280.178 85.2675 281.373 85.7856C288.468 88.8612 281.224 59.6993 280.526 54.4102C280.318 52.8284 282.558 63.8341 285.975 76.2052C289.003 87.1694 288.734 94.1527 288.565 95.6122C288.428 96.7976 285.169 87.7248 279.798 76.7208C274.521 65.9095 269.933 59.9763 268.312 58.1833C267.011 56.7452 267.347 66.7018 269.143 84.7186C270.961 102.96 267.034 108.158 264.631 111.344C262.696 113.909 258.826 114.847 252.252 117.669C247.514 119.703 243.611 120.326 239.081 121.863C230.88 124.644 224.301 121.024 220.936 119.226C219.341 118.374 227.81 115.217 237.277 112.144C252.52 107.196 257.934 107.163 261.107 105.547C262.944 104.611 263.767 102.894 264.192 101.53C264.411 100.829 264.787 100.165 262.93 100.832C256.807 103.031 249.1 106.978 240.917 109.538C225.149 114.471 220.689 113.832 217.865 114.257C211.788 115.174 200.2 118.1 194.359 117.174C189.232 116.361 187.857 110.938 184.104 104.554C178.334 94.7365 174.339 86.827 173.401 84.0978C171.57 78.7757 172.785 69.0975 176.373 59.7352C177.203 57.5719 177.751 56.2108 178.602 55.1848C179.395 54.2305 174.734 62.4541 161.781 78.3137C154.859 86.7882 146.119 95.189 141.25 99.8061C136.382 104.423 135.366 104.762 134.504 104.344C130.298 102.303 131.416 96.5741 131.326 92.8138C131.227 88.6349 135.151 82.2407 138.414 79.037C138.938 78.5223 139.778 78.6087 140.466 78.3522C141.153 78.0957 141.83 77.7571 140.994 77.1594C138.133 75.1147 129.251 73.8275 115.785 72.1191C100.041 70.1219 90.3808 70.2313 89.4369 69.5464C88.9676 69.206 92.4072 70.5596 96.0726 72.1807C100.114 73.9679 110.301 77.3775 122.777 81.9945C131.215 85.1173 138.383 84.5903 143.88 85.6112C145.846 85.9764 150.018 89.0124 157.264 93.8732C165.177 99.1812 172.426 103.551 181.863 108.914C188.39 112.624 199.256 116.817 211.353 119.595C223.449 122.373 236.654 123.22 247.435 123.063C258.216 122.907 266.172 121.722 272.811 121.111C279.449 120.501 284.528 120.501 287.313 119.993C298.523 117.949 302.75 96.7486 303.524 93.75C304.581 89.6587 305.489 83.4207 306.941 76.0667C307.711 72.1659 307.716 64.9832 306.013 53.3406C304.646 43.9965 306.177 40.4924 307.113 36.042C307.51 34.155 308.224 32.7819 309.501 31.9277C311.046 30.8948 315.38 31.2377 323.383 31.6609C342.855 32.6907 345.832 34.1413 350.108 34.7416C355.198 35.456 362.751 35.8548 368.055 35.429C376.422 34.7574 381.558 35.8548 386.87 35.429C392.34 34.9906 398.815 39.0764 403.296 42.7675C411.135 49.2245 403.145 69.0052 401.603 73.0297C400.137 76.8573 398.01 79.963 396.902 81.756C395.949 83.2973 394.249 83.7336 393.139 83.6515C390.134 83.4295 396.096 73.1811 399.108 66.8249C401.291 62.2175 402.96 51.84 402.029 44.2501C401.537 40.2396 397.163 37.7529 386.508 31.8585C377.003 26.6004 365.901 23.2143 359.463 22.0908C356 21.4866 349.146 22.5166 334.305 19.9619C327.405 18.7741 316.15 19.4386 309.886 19.6925C300.713 20.0644 298.153 23.5324 296.094 26.0974C295.612 26.6976 295.578 27.462 295.491 34.6672C295.404 41.8723 295.404 55.585 295.488 63.1569C295.607 73.8149 296.594 78.5779 297.535 84.3005C300.366 101.512 300.872 110.733 301.472 115.938C302.356 123.6 301.39 129.386 301.472 130.581C301.682 133.633 308.721 132.125 313.256 132.384C321.513 132.856 333.52 133.151 341.63 132.903C343.172 132.855 343.113 131.633 343.028 130.689C342.648 126.445 341.235 121.722 339.871 114.724C339.276 111.671 338.681 106.916 338.332 99.8189C337.526 83.4265 338.152 72.4629 338.409 69.903C338.803 65.9693 339.009 62.213 339.519 57.3343C340.136 51.4444 340.712 43.5909 341.913 38.9482C342.215 37.7787 342.087 36.06 341.156 35.4418C334.418 30.9683 324.665 39.7844 321.236 41.149C316.082 43.1999 320.192 56.6828 320.625 61.3204C320.915 64.4196 322.07 72.5552 322.677 81.2301C323.068 86.8041 322.767 90.5617 322.508 100.624C322.379 105.63 321.741 109.368 321.651 117.987C321.62 121.004 322.249 122.717 322.252 123.235C322.27 126.972 319.351 113.021 319.086 103.943C319.011 101.354 319.853 99.8163 319.943 98.5364C320.197 94.915 312.179 97.4155 304.62 96.3151C298.713 95.4553 288.765 93.0139 281.673 91.8801C274.581 90.7464 270.687 90.7464 268.766 91.1696C266.845 91.5928 267.014 92.4393 267.44 94.1451C267.865 95.8508 268.543 98.3902 268.891 100.037C269.378 102.336 262.13 107.122 250.003 113.785C242.526 117.894 237.793 118.449 233.874 118.025C222.504 116.798 214.544 109.738 211.876 107.173C207.986 103.433 211.435 94.0091 212.209 88.6456C213.53 79.5034 212.466 72.627 212.976 71.3471C213.233 70.7037 213.825 70.2364 214.341 70.3134C215.598 70.501 215.888 73.4581 216.142 77.0389C216.424 81.0216 217.935 90.5001 218.873 102.209C219.418 109.002 222.372 112.272 227.666 117.831C231.044 121.377 240.963 121.527 249.115 120.337C255.853 119.353 261.191 117.941 263.749 117.002C266.561 115.969 274.478 113.852 292.603 109.166C304.37 106.123 321.731 103.295 335.451 101.553C349.172 99.8112 358.821 99.6419 364.385 99.3854C371.152 99.0734 373.032 98.1029 373.804 97.1666C375.935 94.5819 371 89.4074 367.086 77.0055C364.118 67.6008 360.802 51.3988 358.714 42.7752C356.626 34.1516 356.287 33.4744 355.774 33.7181C355.261 33.9618 354.584 35.1468 352.204 44.1372C349.823 53.1277 345.76 69.8876 343.667 78.86C341.574 87.8325 341.574 88.5097 341.574 88.4353C341.574 87.5144 342.251 82.5793 344.716 72.3603C348.239 57.7543 353.024 48.3516 354.304 46.8921C355.326 45.7274 355.938 51.2244 355.176 60.9895C354.572 68.7369 352.891 82.0971 352.106 90.595C351.321 99.093 351.321 102.31 351.998 102.697C352.676 103.084 354.03 100.545 357.859 91.5338C361.689 82.5229 367.953 67.1173 371.941 57.8268C378.738 41.9951 381.07 40.477 381.84 40.046C382.078 39.9128 382.102 40.8001 378.292 51.5604C374.483 62.3207 366.865 83.1436 368.104 85.0674C369.343 86.9912 379.67 69.3848 385.244 59.9763C390.817 50.5678 391.325 49.8906 391.333 50.0496C391.395 51.325 389.463 55.3182 383.525 69.5003C378.796 80.7939 369.122 99.765 363.903 109.705C358.683 119.644 357.836 119.813 357.739 119.562C356.466 116.279 370.405 115.381 384.11 115.537C386.563 115.565 387.385 116.386 387.991 116.987C388.596 117.587 388.935 118.264 388.347 118.867C387.76 119.47 386.236 119.977 384.097 119.731C379.12 119.158 370.872 113.698 361.561 107.717C353.841 102.757 350.988 101.012 350.636 101.173C341.751 105.259 362.936 115.699 364.059 118.777C365.588 122.967 364.659 126.975 365.085 131.428C365.2 132.626 365.172 133.982 367.627 134.68C380.726 138.403 386.688 134.865 391.32 134.27C393.434 133.998 396.445 132.987 400.962 132.136C406.361 131.118 413.692 130.248 425.356 130.925C432.636 131.348 442.605 132.956 449.444 133.654C463.785 135.117 466.563 134.865 469.813 135.375C473.896 136.017 478.023 135.383 479.054 134.698C479.888 134.145 475.145 134.865 468.938 134.272C464.572 133.856 457.821 132.495 445.953 131.63C434.084 130.766 417.324 130.258 408.267 129.827C393.435 129.121 383.661 124.779 380.06 123.415C378.844 122.954 386.985 119.157 399.541 115.396C407.051 113.147 411.327 113.319 411.181 111.964C410.95 109.827 404.602 107.901 394.285 103.713C383.969 99.5239 368.394 93.9373 360.963 91.0593C353.532 88.1814 354.717 88.1814 365.993 94.1066C377.269 100.032 398.6 111.882 410.096 117.902C421.593 123.922 422.608 123.753 423.555 123.497C425.378 123.003 433.5 121.198 451.809 119.4C462.794 118.321 477.397 119.464 480.75 119.134C484.102 118.803 475.807 117.618 467.132 115.653C458.457 113.688 449.654 110.979 443.003 108.568C426.426 102.559 423.501 99.6419 415.583 100.568C411.138 101.088 403.966 103.869 401.062 104.834C398.159 105.798 399.852 105.459 410.119 104.523C420.387 103.587 439.179 102.063 449.705 101.109C460.232 100.155 461.925 99.8163 463.221 99.4726C464.516 99.1289 465.362 98.7903 464.529 98.0234C463.695 97.2564 461.156 96.0714 450.367 93.2601C439.579 90.4488 420.618 86.0472 410.935 83.3565C401.252 80.6658 401.421 79.8193 404.556 78.1983C407.69 76.5772 413.785 74.2071 419.379 72.3936C424.973 70.5801 429.883 69.3951 438.253 67.9381C446.622 66.4812 458.303 64.7883 464.66 63.8315C471.016 62.8748 471.693 62.7055 458.414 62.449C445.135 62.1925 417.879 61.8539 403.414 61.5102C388.95 61.1665 388.104 60.8279 387.837 60.3149C387.57 59.8019 387.909 59.1247 389.099 58.4373C390.289 57.7498 392.321 57.0727 404.794 55.7081C417.268 54.3435 440.122 52.312 450.711 50.6729C461.299 49.0339 458.929 47.8488 448.143 44.445C437.357 41.0413 418.227 35.4546 407.611 32.2381C392.953 27.7973 390.658 26.7951 390.14 26.1974C389.941 25.9678 391.315 25.7691 405.128 26.1051C418.94 26.4411 445.519 27.2876 462.597 27.3004C479.675 27.3132 486.447 26.4668 490.697 26.0307C499.017 25.1771 502.812 26.1077 511.592 27.385C525.735 29.4427 535.121 26.1077 540.346 26.5335C543.86 26.8199 548.962 27.1337 553.345 27.5595C555.969 27.8143 559.073 27.816 562.651 28.0725C567.234 28.401 576.633 29.1754 587.486 30.8837C595.845 32.1996 601.309 32.9409 604.733 34.9904C613.118 40.0085 617.899 56.0159 620.639 60.1225C622.938 63.569 707.753 130.425 711 135.629C711.778 136.875 631.586 72.4321 631.422 73.2067C631.258 73.9814 630.581 74.6585 629.809 74.9227C624.437 76.7608 614.37 63.434 609.035 57.2471C607.531 55.5029 691.076 139.805 687 137.002C678.359 131.058 584.426 41.6723 574.733 40.99C567.925 40.5108 557.252 40.3077 550.657 39.9639C535.517 39.1748 524.573 38.5942 521.052 38.5044C519.414 38.4627 517.545 39.1021 515.583 39.3586C513.803 39.5913 504.792 40.2923 488.586 41.4901C464.084 43.3012 460.95 43.7038 457.442 45.0017C456.552 45.3305 455.482 45.0889 455.043 45.5121C452.231 48.2255 459.545 63.6186 459.232 72.2628C459.043 77.4858 456.318 80.3067 456.315 81.3353C456.314 82.0844 458.36 80.1477 460.066 79.7193C461.722 79.3034 463.659 80.989 465.367 82.9513C468.158 86.1565 462.684 99.5393 460.676 107.15C459.539 111.459 466.039 117.905 473.896 125.177C480.072 130.893 484.344 129.899 488.45 129.825C492.598 129.749 491.372 119.854 491.713 111.569C492.156 100.809 490.864 91.7929 489.925 85.0751C487.013 64.2375 487.781 58.2834 487.947 55.1002C488.041 53.308 498.308 55.508 510.186 57.3882C515.797 58.2763 520.408 58.427 525.707 58.8502C527.661 59.0063 527.959 60.1199 527.964 61.1485C527.987 65.6943 521.331 71.5497 515.842 76.372C513.507 78.4236 509.009 75.0279 505.661 73.7351C504.053 73.1138 502.494 72.4526 502.06 72.0242C498.957 68.9581 511.358 76.372 523.809 79.0242C529.35 80.2045 532.746 79.1217 535.298 78.3547C539.461 77.1037 547.915 76.8952 558.668 76.5566C567.78 76.2697 574.114 74.8432 577.534 75.1818C578.792 75.3064 578.921 76.1975 578.755 76.885C578.014 79.9374 574.499 84.0465 571.921 88.5097C571.419 89.3793 570.898 90.0487 570.213 90.5668C568.814 91.6255 565.439 91.7724 558.039 90.9259C545.222 89.4599 535.849 86.6423 531.761 86.3884C522.095 85.7881 518.746 84.7647 510.561 84.421C508.148 84.3197 505.951 83.9132 504.394 83.5694C501.955 83.0309 501.119 94.2194 501.203 112.511C501.234 119.121 501.457 120.306 501.545 121.763C501.632 123.22 501.632 124.913 507.811 125.785C513.99 126.657 526.348 126.657 533.392 126.572C546.239 126.418 553.266 126.313 554.125 126.824C555.148 127.431 551.234 128.704 541.397 131.335C532.791 133.638 516.663 137.184 506.685 139.102C496.707 141.021 493.321 141.021 491.323 140.767C489.325 140.513 488.817 140.005 488.979 139.49C489.408 138.119 494.414 136.927 506.911 134.626C515.795 132.991 530.073 131.818 541.885 131.117C553.697 130.417 562.669 130.586 567.63 130.589C574.82 130.593 578.562 129.571 583.949 129.137C588.306 128.786 592.075 129.735 595.756 127.267C598.778 125.241 601.822 122.399 606.78 116.163C609.841 112.314 704 30.1347 711 26.0307C712.069 25.4041 621.85 105.767 621.508 106.973C620.253 111.411 617.756 116.027 614.506 121.509C611.916 125.877 605.444 126.647 601.427 128.021C598.569 129 582.153 128.37 570.057 128.622C566.311 128.699 561.002 128.032 559.768 128.36C541.604 133.194 579.937 136.742 583.102 137.002C587.291 137.344 592.254 137.261 593.791 136.75C594.521 136.507 594.989 135.901 594.912 135.301C594.723 133.83 590.243 131.633 576.228 125.682C565.543 121.145 547.146 114.652 537.05 110.825C525.544 106.464 522.342 105.116 517.743 104.008C505.611 101.085 500.611 98.9596 500.18 98.3594C498.869 96.5327 510.958 105.572 522.875 110.825C526.196 112.289 531.119 112.785 541.095 113.986C551.07 115.186 566.137 116.54 574.999 117.577C591.442 119.499 600.442 119.141 605.141 117.435C607.985 116.403 611.046 108.594 615.996 97.8336C621.103 86.734 625.913 80.4433 631.248 75.1151C749.5 -43 629.74 75.1715 623.54 78.9909C617.34 82.8102 606.336 89.7511 600.329 93.6654C592.154 98.9921 591.413 101.684 590.22 102.794C589.627 103.347 588.689 103.397 588.084 103.061C586.761 102.327 593.393 94.2348 603.651 83.3822C611.064 75.539 664.68 135.619 664 134C661.913 129.032 599.821 59.4633 592.293 56.4725C585.008 53.5784 582.353 52.1068 580.648 51.0808C579.853 50.6028 578.942 50.7319 578.929 51.4091C578.887 53.6046 585.036 59.4069 593.229 67.6021C603.573 77.9491 608.152 79.1114 611.997 81.0762C613.113 81.6764 614.298 82.3536 615.163 82.4485C616.027 82.5434 616.535 82.0355 617.058 81.5123" stroke="#A6FF00" stroke-width="24" stroke-linecap="round"/>
<path d="M97.8964 77.4082C94.8388 76.0539 88.1749 71.1034 84.2427 68.1074C78.9801 64.0978 81.6546 87.653 81.1416 90.3847C80.9163 91.5844 80.9672 92.4393 79.9514 89.9974C76.5924 81.9223 72.9489 72.6527 70.4659 68.2023C70.2752 67.8605 75.4524 75.7974 82.2035 87.3323C87.3255 96.0838 118.66 112.498 118.578 112.511C117.718 112.645 88.3339 96.4407 85.1918 90.4771C82.0496 84.5134 76.463 75.2023 72.6539 69.2207C64.2823 56.0742 59.9545 47.6949 56.6994 43.3062C50.8486 35.4174 39.2598 33.6488 38.0465 30.9863C37.7964 30.4375 40.9271 38.5275 46.6368 51.5733C52.8552 65.7811 57.7075 73.6377 58.4744 75.3434C60.0341 78.8123 62.1501 82.0048 64.0277 87.0399C66.6605 94.1003 68.1369 100.14 68.9911 102.358C69.3827 103.376 69.5066 104.238 66.4619 94.4323C63.4172 84.6262 57.1534 64.1419 53.7573 53.2508C49.7171 40.2941 48.9967 37.5785 47.7116 33.9874C47.1733 32.4833 46.9395 31.0736 47.1062 29.9629C47.6744 26.1781 59.3696 29.8629 64.5356 30.7221C70.1706 31.6594 74.2776 32.2637 77.4505 32.8588C78.2501 33.0088 79.069 33.4539 79.9283 34.0516C81.7631 35.3277 83.1834 40.9387 84.2094 49.1339C84.9763 55.2597 85.0661 62.3156 85.8356 70.5083C86.8645 81.4623 86.6102 89.6588 86.1844 96.2792C85.5412 106.28 73.1643 109.397 72.6539 113.785C72.1244 118.339 84.7326 124.42 84.4736 127.16C83.8955 133.272 84.3838 143.227 85.0686 146.141C85.3905 147.51 85.9228 148.88 86.9437 149.906C87.4842 150.449 88.6417 150.255 89.4189 149.747C93.04 147.381 102.052 128.509 103.268 119.595C104.142 113.183 96.6959 111.287 96.955 106.326C97.1707 102.195 99.4149 94.0604 100.631 88.7046C100.953 87.2847 101.657 85.4573 103.268 78.6677C106.992 62.9678 110.547 51.9375 111.653 48.5388C115.439 36.8986 115.333 34.326 116.357 32.5331C119.663 26.7414 133.448 28.1597 138.147 27.7339C144.902 27.1218 150.377 26.1077 154.312 25.2561C155.334 25.0349 156.358 25.0817 156.712 25.4202C157.447 26.1224 152.993 33.2282 147.271 43.3087C142.293 52.0775 136.587 60.4175 133.13 65.5142C131.313 68.1919 127.835 69.867 124.244 73.6299C119.746 78.3435 116.56 87.4426 114.402 91.598C114.037 92.3014 113.969 84.6467 114.649 73.3888C115.332 62.0701 117.385 55.8671 118.578 54.3358C122.321 49.5302 127.117 47.4897 130.631 46.7151C133.567 46.0679 136.023 47.8232 137.134 48.5876C144.371 53.5688 137.234 71.0675 136.969 76.3617C136.789 79.9839 137.736 83.7182 140.72 89.528C142.592 93.1749 145.257 96.5433 147.222 99.3726C149.242 102.282 152.778 103.561 155.343 105.616C157.866 107.637 160.811 108.691 167.809 111.854C171.303 113.434 175.165 115.186 179.531 118.605C182.78 121.15 185.954 122.378 186.982 123.145C187.356 123.423 186.657 124.081 185.041 124.089C174.109 124.141 165.798 117.946 162.463 115.04C158.122 111.256 152.798 107.86 149.982 105.377C144.195 100.275 139.973 97.6001 138.429 93.5833C138.067 92.6411 137.747 91.9571 137.488 92.0315C133.811 93.0872 139.44 102.012 140.727 106.462C141.969 110.754 145.77 113.134 149.012 115.958C152.348 118.864 156.697 121.003 160.47 122.037C163.678 122.916 166.793 123.404 170.812 124.684C175.673 126.232 180.295 128.021 184.915 128.791C192.409 130.039 195.183 130.073 199.366 130.671C206.121 131.636 210.224 134.003 218.165 135.629C222.961 136.611 228.508 135.378 233.656 134.442C237.081 133.819 240.153 133.5 247.494 133.241C252.167 133.076 256.22 131.961 263.312 130.935C268.844 130.135 275.006 125.508 280.342 121.365C285.112 117.662 291.269 108.404 296.158 102.648C300.225 97.8592 303.088 90.9413 304.037 86.1498C305.303 79.7591 302.083 75.2126 299.518 71.011C296.119 65.4441 292.336 60.3251 290.281 57.4959C287.828 54.1175 283.451 50.2292 281.047 48.09C278.462 45.7887 276.094 43.3857 271.397 41.1644C267.149 39.1549 260.735 39.2816 253.706 39.1867C244.877 39.0675 238.501 39.7947 231.901 37.9991C225.115 36.1529 217.488 35.1879 209.76 33.8053C204.399 32.8463 197.963 35.4905 191.399 39.9255C179.031 48.2821 174.857 50.7217 172.377 52.7763C170.091 54.6695 168.866 57.2163 167.244 60.7201C165.175 65.1941 164.762 69.8568 163.651 75.251C162.387 81.387 163.387 88.3352 164.238 91.2389C164.608 92.5006 165.428 93.1267 163.915 86.3653C162.402 79.6039 158.677 65.3834 156.759 56.6187C154.84 47.854 154.84 44.976 155.094 43.2395C155.437 40.8943 157.733 40.1332 160.811 38.0017C164.89 35.1771 168.845 34.839 172.611 33.4642C176.333 32.105 181.67 31.5866 185.436 30.6426C188.98 29.7541 197.019 28.6727 205.161 29.0985C222.866 30.0245 229.031 30.7247 235.867 31.5763C242.176 32.3623 245.621 33.2795 253.052 35.5906C257.367 36.9325 260.001 37.9017 260.686 39.0098C262.268 41.5699 260.006 48.2952 260.683 60.8869C261.134 69.2616 262.715 81.6046 263.582 88.4789C264.863 98.6387 265.475 102.361 265.734 105.1C265.799 105.79 265.988 106.465 266.075 106.475C266.743 106.554 265.993 104.264 265.567 102.643C265.169 101.125 260.899 89.8281 254.917 72.9913C251.208 62.5523 247.037 54.2101 244.2 47.0024C238.515 32.5585 238.291 29.0215 238.457 28.5034C238.968 26.9167 244.067 37.835 250.554 50.301C253.373 55.7173 255.687 59.0426 260.037 63.9188C277.314 83.2839 280.178 85.2675 281.373 85.7856C288.468 88.8612 281.224 59.6993 280.526 54.4102C280.318 52.8284 282.558 63.8341 285.975 76.2052C289.003 87.1694 288.734 94.1527 288.565 95.6122C288.428 96.7976 285.169 87.7248 279.798 76.7208C274.521 65.9095 269.933 59.9763 268.312 58.1833C267.011 56.7452 267.347 66.7018 269.143 84.7186C270.961 102.96 267.034 108.158 264.631 111.344C262.696 113.909 258.826 114.847 252.252 117.669C247.514 119.703 243.611 120.326 239.081 121.863C230.88 124.644 224.301 121.024 220.936 119.226C219.341 118.374 227.81 115.217 237.277 112.144C252.52 107.196 257.934 107.163 261.107 105.547C262.944 104.611 263.767 102.894 264.192 101.53C264.411 100.829 264.787 100.165 262.93 100.832C256.807 103.031 249.1 106.978 240.917 109.538C225.149 114.471 220.689 113.832 217.865 114.257C211.788 115.174 200.2 118.1 194.359 117.174C189.232 116.361 187.857 110.938 184.104 104.554C178.334 94.7365 174.339 86.827 173.401 84.0978C171.57 78.7757 172.785 69.0975 176.373 59.7352C177.203 57.5719 177.751 56.2108 178.602 55.1848C179.395 54.2305 174.734 62.4541 161.781 78.3137C154.859 86.7882 146.119 95.189 141.25 99.8061C136.382 104.423 135.366 104.762 134.504 104.344C130.298 102.303 131.416 96.5741 131.326 92.8138C131.227 88.6349 135.151 82.2407 138.414 79.037C138.938 78.5223 139.778 78.6087 140.466 78.3522C141.153 78.0957 141.83 77.7571 140.994 77.1594C138.133 75.1147 129.251 73.8275 115.785 72.1191C100.041 70.1219 90.3808 70.2313 89.4369 69.5464C88.9676 69.206 92.4072 70.5596 96.0726 72.1807C100.114 73.9679 110.301 77.3775 122.777 81.9945C131.215 85.1173 138.383 84.5903 143.88 85.6112C145.846 85.9764 150.018 89.0124 157.264 93.8732C165.177 99.1812 172.426 103.551 181.863 108.914C188.39 112.624 199.256 116.817 211.353 119.595C223.449 122.373 236.654 123.22 247.435 123.063C258.216 122.907 266.172 121.722 272.811 121.111C279.449 120.501 284.528 120.501 287.313 119.993C298.523 117.949 302.75 96.7486 303.524 93.75C304.581 89.6587 305.489 83.4207 306.941 76.0667C307.711 72.1659 307.716 64.9832 306.013 53.3406C304.646 43.9965 306.177 40.4924 307.113 36.042C307.51 34.155 308.224 32.7819 309.501 31.9277C311.046 30.8948 315.38 31.2377 323.383 31.6609C342.855 32.6907 345.832 34.1413 350.108 34.7416C355.198 35.456 362.751 35.8548 368.055 35.429C376.422 34.7574 381.558 35.8548 386.87 35.429C392.34 34.9906 398.815 39.0764 403.296 42.7675C411.135 49.2245 403.145 69.0052 401.603 73.0297C400.137 76.8573 398.01 79.963 396.902 81.756C395.949 83.2973 394.249 83.7336 393.139 83.6515C390.134 83.4295 396.096 73.1811 399.108 66.8249C401.291 62.2175 402.96 51.84 402.029 44.2501C401.537 40.2396 397.163 37.7529 386.508 31.8585C377.003 26.6004 365.901 23.2143 359.463 22.0908C356 21.4866 349.146 22.5166 334.305 19.9619C327.405 18.7741 316.15 19.4386 309.886 19.6925C300.713 20.0644 298.153 23.5324 296.094 26.0974C295.612 26.6976 295.578 27.462 295.491 34.6672C295.404 41.8723 295.404 55.585 295.488 63.1569C295.607 73.8149 296.594 78.5779 297.535 84.3005C300.366 101.512 300.872 110.733 301.472 115.938C302.356 123.6 301.39 129.386 301.472 130.581C301.682 133.633 308.721 132.125 313.256 132.384C321.513 132.856 333.52 133.151 341.63 132.903C343.172 132.855 343.113 131.633 343.028 130.689C342.648 126.445 341.235 121.722 339.871 114.724C339.276 111.671 338.681 106.916 338.332 99.8189C337.526 83.4265 338.152 72.4629 338.409 69.903C338.803 65.9693 339.009 62.213 339.519 57.3343C340.136 51.4444 340.712 43.5909 341.913 38.9482C342.215 37.7787 342.087 36.06 341.156 35.4418C334.418 30.9683 324.665 39.7844 321.236 41.149C316.082 43.1999 320.192 56.6828 320.625 61.3204C320.915 64.4196 322.07 72.5552 322.677 81.2301C323.068 86.8041 322.767 90.5617 322.508 100.624C322.379 105.63 321.741 109.368 321.651 117.987C321.62 121.004 322.249 122.717 322.252 123.235C322.27 126.972 319.351 113.021 319.086 103.943C319.011 101.354 319.853 99.8163 319.943 98.5364C320.197 94.915 312.179 97.4155 304.62 96.3151C298.713 95.4553 288.765 93.0139 281.673 91.8801C274.581 90.7464 270.687 90.7464 268.766 91.1696C266.845 91.5928 267.014 92.4393 267.44 94.1451C267.865 95.8508 268.543 98.3902 268.891 100.037C269.378 102.336 262.13 107.122 250.003 113.785C242.526 117.894 237.793 118.449 233.874 118.025C222.504 116.798 214.544 109.738 211.876 107.173C207.986 103.433 211.435 94.0091 212.209 88.6456C213.53 79.5034 212.466 72.627 212.976 71.3471C213.233 70.7037 213.825 70.2364 214.341 70.3134C215.598 70.501 215.888 73.4581 216.142 77.0389C216.424 81.0216 217.935 90.5001 218.873 102.209C219.418 109.002 222.372 112.272 227.666 117.831C231.044 121.377 240.963 121.527 249.115 120.337C255.853 119.353 261.191 117.941 263.749 117.002C266.561 115.969 274.478 113.852 292.603 109.166C304.37 106.123 321.731 103.295 335.451 101.553C349.172 99.8112 358.821 99.6419 364.385 99.3854C371.152 99.0734 373.032 98.1029 373.804 97.1666C375.935 94.5819 371 89.4074 367.086 77.0055C364.118 67.6008 360.802 51.3988 358.714 42.7752C356.626 34.1516 356.287 33.4744 355.774 33.7181C355.261 33.9618 354.584 35.1468 352.204 44.1372C349.823 53.1277 345.76 69.8876 343.667 78.86C341.574 87.8325 341.574 88.5097 341.574 88.4353C341.574 87.5144 342.251 82.5793 344.716 72.3603C348.239 57.7543 353.024 48.3516 354.304 46.8921C355.326 45.7274 355.938 51.2244 355.176 60.9895C354.572 68.7369 352.891 82.0971 352.106 90.595C351.321 99.093 351.321 102.31 351.998 102.697C352.676 103.084 354.03 100.545 357.859 91.5338C361.689 82.5229 367.953 67.1173 371.941 57.8268C378.738 41.9951 381.07 40.477 381.84 40.046C382.078 39.9128 382.102 40.8001 378.292 51.5604C374.483 62.3207 366.865 83.1436 368.104 85.0674C369.343 86.9912 379.67 69.3848 385.244 59.9763C390.817 50.5678 391.325 49.8906 391.333 50.0496C391.395 51.325 389.463 55.3182 383.525 69.5003C378.796 80.7939 369.122 99.765 363.903 109.705C358.683 119.644 357.836 119.813 357.739 119.562C356.466 116.279 370.405 115.381 384.11 115.537C386.563 115.565 387.385 116.386 387.991 116.987C388.596 117.587 388.935 118.264 388.347 118.867C387.76 119.47 386.236 119.977 384.097 119.731C379.12 119.158 370.872 113.698 361.561 107.717C353.841 102.757 350.988 101.012 350.636 101.173C341.751 105.259 362.936 115.699 364.059 118.777C365.588 122.967 364.659 126.975 365.085 131.428C365.2 132.626 365.172 133.982 367.627 134.68C380.726 138.403 386.688 134.865 391.32 134.27C393.434 133.998 396.445 132.987 400.962 132.136C406.361 131.118 413.692 130.248 425.356 130.925C432.636 131.348 442.605 132.956 449.444 133.654C463.785 135.117 466.563 134.865 469.813 135.375C473.896 136.017 478.023 135.383 479.054 134.698C479.888 134.145 475.145 134.865 468.938 134.272C464.572 133.856 457.821 132.495 445.953 131.63C434.084 130.766 417.324 130.258 408.267 129.827C393.435 129.121 383.661 124.779 380.06 123.415C378.844 122.954 386.985 119.157 399.541 115.396C407.051 113.147 411.327 113.319 411.181 111.964C410.95 109.827 404.602 107.901 394.285 103.713C383.969 99.5239 368.394 93.9373 360.963 91.0593C353.532 88.1814 354.717 88.1814 365.993 94.1066C377.269 100.032 398.6 111.882 410.096 117.902C421.593 123.922 422.608 123.753 423.555 123.497C425.378 123.003 433.5 121.198 451.809 119.4C462.794 118.321 477.397 119.464 480.75 119.134C484.102 118.803 475.807 117.618 467.132 115.653C458.457 113.688 449.654 110.979 443.003 108.568C426.426 102.559 423.501 99.6419 415.583 100.568C411.138 101.088 403.966 103.869 401.062 104.834C398.159 105.798 399.852 105.459 410.119 104.523C420.387 103.587 439.179 102.063 449.705 101.109C460.232 100.155 461.925 99.8163 463.221 99.4726C464.516 99.1289 465.362 98.7903 464.529 98.0234C463.695 97.2564 461.156 96.0714 450.367 93.2601C439.579 90.4488 420.618 86.0472 410.935 83.3565C401.252 80.6658 401.421 79.8193 404.556 78.1983C407.69 76.5772 413.785 74.2071 419.379 72.3936C424.973 70.5801 429.883 69.3951 438.253 67.9381C446.622 66.4812 458.303 64.7883 464.66 63.8315C471.016 62.8748 471.693 62.7055 458.414 62.449C445.135 62.1925 417.879 61.8539 403.414 61.5102C388.95 61.1665 388.104 60.8279 387.837 60.3149C387.57 59.8019 387.909 59.1247 389.099 58.4373C390.289 57.7498 392.321 57.0727 404.794 55.7081C417.268 54.3435 440.122 52.312 450.711 50.6729C461.299 49.0339 458.929 47.8488 448.143 44.445C437.357 41.0413 418.227 35.4546 407.611 32.2381C392.953 27.7973 390.658 26.7951 390.14 26.1974C389.941 25.9678 391.315 25.7691 405.128 26.1051C418.94 26.4411 445.519 27.2876 462.597 27.3004C479.675 27.3132 486.447 26.4668 490.697 26.0307C499.017 25.1771 502.812 26.1077 511.592 27.385C525.735 29.4427 535.121 26.1077 540.346 26.5335C543.86 26.8199 548.962 27.1337 553.345 27.5595C555.969 27.8143 559.073 27.816 562.651 28.0725C567.234 28.401 576.633 29.1754 587.486 30.8837C595.845 32.1996 601.309 32.9409 604.733 34.9904C613.118 40.0085 617.899 56.0159 620.639 60.1225C622.938 63.569 707.753 130.425 711 135.629C711.778 136.875 631.586 72.4321 631.422 73.2067C631.258 73.9814 630.581 74.6585 629.809 74.9227C624.437 76.7608 614.37 63.434 609.035 57.2471C607.531 55.5029 691.076 139.805 687 137.002C678.359 131.058 584.426 41.6723 574.733 40.99C567.925 40.5108 557.252 40.3077 550.657 39.9639C535.517 39.1748 524.573 38.5942 521.052 38.5044C519.414 38.4627 517.545 39.1021 515.583 39.3586C513.803 39.5913 504.792 40.2923 488.586 41.4901C464.084 43.3012 460.95 43.7038 457.442 45.0017C456.552 45.3305 455.482 45.0889 455.043 45.5121C452.231 48.2255 459.545 63.6186 459.232 72.2628C459.043 77.4858 456.318 80.3067 456.315 81.3353C456.314 82.0844 458.36 80.1477 460.066 79.7193C461.722 79.3034 463.659 80.989 465.367 82.9513C468.158 86.1565 462.684 99.5393 460.676 107.15C459.539 111.459 466.039 117.905 473.896 125.177C480.072 130.893 484.344 129.899 488.45 129.825C492.598 129.749 491.372 119.854 491.713 111.569C492.156 100.809 490.864 91.7929 489.925 85.0751C487.013 64.2375 487.781 58.2834 487.947 55.1002C488.041 53.308 498.308 55.508 510.186 57.3882C515.797 58.2763 520.408 58.427 525.707 58.8502C527.661 59.0063 527.959 60.1199 527.964 61.1485C527.987 65.6943 521.331 71.5497 515.842 76.372C513.507 78.4236 509.009 75.0279 505.661 73.7351C504.053 73.1138 502.494 72.4526 502.06 72.0242C498.957 68.9581 511.358 76.372 523.809 79.0242C529.35 80.2045 532.746 79.1217 535.298 78.3547C539.461 77.1037 547.915 76.8952 558.668 76.5566C567.78 76.2697 574.114 74.8432 577.534 75.1818C578.792 75.3064 578.921 76.1975 578.755 76.885C578.014 79.9374 574.499 84.0465 571.921 88.5097C571.419 89.3793 570.898 90.0487 570.213 90.5668C568.814 91.6255 565.439 91.7724 558.039 90.9259C545.222 89.4599 535.849 86.6423 531.761 86.3884C522.095 85.7881 518.746 84.7647 510.561 84.421C508.148 84.3197 505.951 83.9132 504.394 83.5694C501.955 83.0309 501.119 94.2194 501.203 112.511C501.234 119.121 501.457 120.306 501.545 121.763C501.632 123.22 501.632 124.913 507.811 125.785C513.99 126.657 526.348 126.657 533.392 126.572C546.239 126.418 553.266 126.313 554.125 126.824C555.148 127.431 551.234 128.704 541.397 131.335C532.791 133.638 516.663 137.184 506.685 139.102C496.707 141.021 493.321 141.021 491.323 140.767C489.325 140.513 488.817 140.005 488.979 139.49C489.408 138.119 494.414 136.927 506.911 134.626C515.795 132.991 530.073 131.818 541.885 131.117C553.697 130.417 562.669 130.586 567.63 130.589C574.82 130.593 578.562 129.571 583.949 129.137C588.306 128.786 592.075 129.735 595.756 127.267C598.778 125.241 601.822 122.399 606.78 116.163C609.841 112.314 704 30.1347 711 26.0307C712.069 25.4041 621.85 105.767 621.508 106.973C620.253 111.411 617.756 116.027 614.506 121.509C611.916 125.877 605.444 126.647 601.427 128.021C598.569 129 582.153 128.37 570.057 128.622C566.311 128.699 561.002 128.032 559.768 128.36C541.604 133.194 579.937 136.742 583.102 137.002C587.291 137.344 592.254 137.261 593.791 136.75C594.521 136.507 594.989 135.901 594.912 135.301C594.723 133.83 590.243 131.633 576.228 125.682C565.543 121.145 547.146 114.652 537.05 110.825C525.544 106.464 522.342 105.116 517.743 104.008C505.611 101.085 500.611 98.9596 500.18 98.3594C498.869 96.5327 510.958 105.572 522.875 110.825C526.196 112.289 531.119 112.785 541.095 113.986C551.07 115.186 566.137 116.54 574.999 117.577C591.442 119.499 600.442 119.141 605.141 117.435C607.985 116.403 611.046 108.594 615.996 97.8336C621.103 86.734 625.913 80.4433 631.248 75.1151C749.5 -43 629.74 75.1715 623.54 78.9909C617.34 82.8102 606.336 89.7511 600.329 93.6654C592.154 98.9921 591.413 101.684 590.22 102.794C589.627 103.347 588.689 103.397 588.084 103.061C586.761 102.327 593.393 94.2348 603.651 83.3822C611.064 75.539 664.68 135.619 664 134C661.913 129.032 599.821 59.4633 592.293 56.4725C585.008 53.5784 582.353 52.1068 580.648 51.0808C579.853 50.6028 578.942 50.7319 578.929 51.4091C578.887 53.6046 585.036 59.4069 593.229 67.6021C603.573 77.9491 608.152 79.1114 611.997 81.0762C613.113 81.6764 614.298 82.3536 615.163 82.4485C616.027 82.5434 616.535 82.0355 617.058 81.5123" stroke="#008CFF" stroke-width="24" stroke-linecap="round"/>
<path d="M0.520384 6.75734C7.03335e-06 7.25686 1.47441 11.9191 2.51516 13.3344C2.94881 13.7506 4.24975 16.498 5.46396 19.4119C6.76491 22.3258 9.36679 27.9038 11.1881 31.7334C13.0962 35.5631 14.6573 38.9765 14.6573 39.143C14.6573 39.3928 15.8715 42.0569 17.3459 45.1373C18.8203 48.3009 20.9885 52.8799 22.2028 55.3775C23.417 57.8751 25.0648 61.455 25.9321 63.2866C26.7994 65.1182 28.7075 69.1143 30.1819 72.278C31.6563 75.3584 32.8705 78.0225 32.8705 78.189C32.8705 78.4387 34.6051 82.1852 36.7733 86.5143C38.9415 90.9268 40.6761 94.6732 40.6761 94.8397C40.6761 95.0895 42.4107 98.8359 44.579 103.165C46.7472 107.578 48.4818 111.324 48.4818 111.49C48.4818 111.74 50.2164 115.487 52.3846 119.816C54.5528 124.228 56.2874 127.975 56.2874 128.141C56.2874 128.391 58.022 132.137 60.1903 136.467C62.3585 140.879 64.0931 144.625 64.0931 144.792C64.0931 145.042 65.8277 148.788 67.9959 153.117C70.1642 157.53 71.8987 161.276 71.8987 161.526C71.8987 161.776 73.6333 165.522 75.8016 169.935C77.9698 174.264 79.7044 178.01 79.7044 178.26C79.7044 178.426 80.8319 180.924 82.2196 183.838C83.6072 186.669 85.6887 190.998 86.8162 193.329C87.857 195.743 89.2446 197.741 89.8517 197.741C90.3721 197.741 92.6271 194.245 94.7086 189.999C96.8768 185.836 101.127 177.261 104.249 171.1C107.371 164.939 113.008 153.534 116.911 145.874C120.727 138.132 123.936 131.555 123.936 131.222C123.936 130.889 124.717 129.806 125.758 128.807L127.492 126.892L133.216 131.971C140.155 138.048 148.221 143.21 156.894 147.123C167.735 152.035 168.862 152.368 183.78 156.198C189.677 157.696 207.457 159.445 217.171 159.445C236.685 159.445 258.194 156.031 273.892 150.37C276.494 149.454 278.835 148.871 279.095 149.121C279.356 149.371 279.789 151.702 280.049 154.283L280.483 159.028L443.101 159.278L605.719 159.445L616.993 149.038C623.238 143.377 628.702 138.714 629.222 138.631C629.829 138.631 631.738 140.213 633.472 142.128C635.293 144.126 639.89 148.788 643.619 152.618L650.471 159.445H702.075C732.257 159.445 753.592 159.112 753.592 158.695C753.592 158.029 749.343 152.784 746.567 150.037C738.328 141.961 687.418 87.1804 686.551 85.5153C685.683 83.6837 688.112 81.1861 724.798 45.9698C746.394 25.2397 764 7.83963 764 7.25686C764 6.50758 752.725 6.25781 713.523 6.25781H663.047L649.517 19.1621C642.058 26.2387 635.64 32.0665 635.12 32.0665C634.6 32.0665 629.743 27.4875 624.279 21.9095C618.902 16.2483 613.177 10.4205 611.703 8.92193L608.928 6.25781H280.136L279.876 11.5028C279.529 17.7468 280.049 17.6636 267.04 13.5009C245.271 6.59083 228.706 5.25877 194.101 7.58987C188.984 7.92289 186.382 7.83963 186.035 7.17361C185.601 6.50758 174.326 6.25781 146.92 6.25781H108.412L103.035 16.6645C100.086 22.409 97.3105 26.988 96.8768 26.9047C96.3565 26.7382 94.8821 23.9908 93.4944 20.8272C92.02 17.5803 89.9385 13.0014 88.7243 10.587L86.556 6.25781H43.7984C20.2947 6.25781 0.867302 6.50758 0.520384 6.75734ZM75.1945 24.2406C76.2352 24.9066 77.1025 25.8224 77.1025 26.3219C77.1025 26.7382 78.3167 29.5688 79.7911 32.6492C81.2655 35.8129 83.0001 39.3928 83.6072 40.8081C84.7347 43.3057 87.3366 48.7172 92.6271 59.7899C94.1015 62.8703 95.3157 65.7842 95.3157 66.2005C95.3157 66.7 95.8361 67.033 96.4432 67.033C97.6574 67.033 97.9176 66.4502 111.274 40.3086C115.871 31.2339 120.207 23.6578 120.988 23.4081C123.156 22.5755 156.72 22.8253 157.241 23.6578C157.587 24.0741 156.46 26.988 154.812 30.1516C149.695 39.9755 149.608 39.8923 159.149 35.3133C174.673 27.987 190.458 24.3239 212.4 23.1583C219.772 22.742 226.711 23.2416 244.057 25.3229C256.199 26.8215 267.907 30.8176 277.881 36.8952C285.08 41.3076 288.983 44.9708 293.493 51.4646C295.314 54.1287 297.135 55.9603 297.482 55.6272C297.916 55.211 298.349 47.8014 298.436 39.143L298.696 23.3248L334.255 23.0751C364.351 22.9085 371.202 23.0751 378.921 24.2406C383.865 25.0731 389.242 26.4052 390.803 27.2377L393.665 28.9028L394.619 26.5717C395.053 25.2397 396.007 23.9076 396.527 23.5746C397.134 23.2416 443.274 22.9085 499.215 22.9085H600.862L603.724 25.6559C605.372 27.0712 611.876 33.7315 618.294 40.3918C624.626 47.0521 631.044 53.4626 632.518 54.7114L635.12 57.0426L642.058 50.5488C645.874 47.0521 654.114 39.3928 660.271 33.4818L671.46 22.9085L695.744 23.0751C711.355 23.2416 720.202 23.6578 720.375 24.1574C720.548 24.6569 707.192 38.0607 690.714 54.0454C674.235 70.0301 660.792 83.3507 660.792 83.6837C660.792 84.0167 661.659 85.1823 662.787 86.2646C665.475 89.0952 695.223 120.648 699.907 125.644C701.988 127.975 705.804 131.971 708.32 134.635C710.748 137.299 712.83 140.046 712.83 140.712C712.83 141.795 709.274 141.961 685.683 141.961H658.537L651.599 135.051C647.869 131.305 641.538 124.978 637.635 120.898C633.732 116.902 630.176 113.655 629.743 113.655C629.309 113.655 625.84 116.569 622.111 120.149C618.294 123.645 611.443 130.056 606.846 134.302L598.52 141.961H539.891C494.011 141.961 481.175 141.712 480.655 140.962C480.308 140.379 479.787 119.483 479.527 94.5067L479.094 49.1335H468.686L468.252 94.5067C467.992 119.483 467.472 140.379 467.125 140.879C466.605 141.712 456.284 141.961 420.551 141.961H374.758L361.922 129.14C354.81 122.064 348.739 116.486 348.392 116.652C348.045 116.902 347.698 122.23 347.698 128.474C347.698 134.718 347.352 140.379 347.005 140.962C346.398 141.712 340.934 141.961 322.46 141.795L298.696 141.545L298.436 125.727C298.263 110.908 297.482 106.162 295.921 109.992C293.926 115.154 285.253 124.561 279.182 128.224C266.086 136.134 253.163 139.547 230.007 141.212C204.508 143.127 182.045 139.63 162.965 130.805C158.975 129.057 157.501 128.141 151.256 123.729C144.405 118.817 139.981 114.404 135.732 107.827C131.569 101.583 130.094 98.1699 129.053 92.5086C128.707 90.2608 128.099 88.2627 127.926 88.0129C127.059 87.2636 124.89 89.678 122.982 93.5077C121.942 95.6722 118.906 101.916 116.131 107.411C113.355 112.906 108.845 121.897 106.157 127.392C103.382 132.887 99.3053 141.129 97.0503 145.708C94.7953 150.287 92.7138 154.699 92.3669 155.532C91.9333 156.697 91.4996 156.864 90.1987 156.114C89.2446 155.698 88.2039 154.449 87.857 153.45C87.3366 151.785 85.602 147.789 81.0053 138.215C80.3982 136.8 78.8371 133.469 77.5362 130.722C74.7608 124.728 72.9395 120.981 69.2969 113.239C67.8225 109.992 66.0011 106.245 65.394 104.913C63.486 100.667 60.8841 95.1727 58.4557 89.9277C57.1547 87.1804 55.4201 83.434 54.5528 81.6024C53.6856 79.7708 51.951 76.0244 50.65 73.277C49.3491 70.5296 47.6145 66.7832 46.7472 64.9516C45.8799 63.1201 44.1453 59.4569 42.9311 56.7928C41.7169 54.2119 39.6354 49.8827 38.4212 47.2186C37.207 44.6378 35.4724 40.9746 34.6051 39.143C33.7378 37.3114 31.9165 33.3985 30.4421 30.4014C29.0544 27.4042 28.1004 24.5736 28.2738 23.9908C28.6207 23.1583 33.9112 22.9085 50.9969 22.9085C69.7305 22.9085 73.5466 23.0751 75.1945 24.2406Z" fill="black"/>
<path d="M207.63 44.2215C197.917 47.7181 192.626 51.3813 187.596 57.9583C182.999 63.9526 181.525 67.1162 180.224 73.277C177.275 87.4301 186.815 105.413 201.299 112.906C206.676 115.653 206.937 115.736 217.171 115.653C226.624 115.57 227.925 115.403 231.915 113.405C244.577 107.078 251.342 95.4225 251.429 79.7708C251.429 71.1124 251.169 70.1134 246.745 61.3717C244.664 57.3756 236.685 49.3832 232.782 47.3851C223.936 42.9727 214.395 41.8071 207.63 44.2215ZM219.773 65.0349C225.497 70.9459 225.844 87.3469 220.466 94.2569C217.864 97.6703 215.61 97.7536 212.487 94.4234C206.937 88.5957 207.023 71.7785 212.661 65.6177C215.696 62.2875 216.997 62.2043 219.773 65.0349ZM350.734 46.9689L348.132 47.4684V67.4493L356.458 67.699C363.657 67.8655 365.305 67.699 367.906 66.2005C370.942 64.4521 373.717 60.2894 373.717 57.4588C373.717 55.4607 370.595 50.7985 368.253 49.3C367.213 48.6339 363.743 47.7181 360.621 47.1354C354.463 46.1363 354.637 46.1363 350.734 46.9689ZM414.914 50.965C415.261 53.5459 415.868 56.6263 416.388 57.7918C417.256 59.8732 417.342 59.8732 417.949 58.2914C418.817 56.2933 418.99 49.3832 418.296 47.5516C418.036 46.8023 416.995 46.2196 416.041 46.2196C414.393 46.2196 414.307 46.5526 414.914 50.965ZM529.83 59.1239C529.83 67.5325 530.091 70.3631 530.958 70.3631C531.478 70.4464 540.498 70.3631 550.992 70.3631C564.089 70.3631 570.246 70.6129 571.114 71.2789C572.848 72.611 572.848 92.1756 571.2 93.5909C570.42 94.1737 563.048 94.5899 550.125 94.6732L530.264 94.923V117.401L550.906 117.651L571.634 117.818L574.756 114.737C591.408 98.1699 602.336 86.5143 602.51 85.0158C602.683 83.767 600.949 81.2694 596.959 77.0234C593.75 73.61 588.546 67.9488 585.337 64.5354C582.128 61.122 577.445 55.9603 574.843 53.1296L570.16 47.9679L550.038 47.8846H529.83V59.1239ZM416.302 68.4483C415.781 69.4473 415.348 70.8627 415.348 71.6952C415.348 74.0263 411.271 78.522 405.894 81.9354C400.777 85.1823 390.109 90.344 388.461 90.344C386.553 90.344 388.028 92.5919 396.441 102.249C401.297 107.827 407.802 115.32 410.924 118.9C414.047 122.397 416.995 125.227 417.429 125.061C418.643 124.645 419.164 71.5287 418.123 68.6148L417.342 66.7L416.302 68.4483Z" fill="black"/>
</svg>
